<svg width="207" height="156" viewBox="0 0 207 156" fill="none" xmlns="http://www.w3.org/2000/svg">
<path d="M0 27.062C0 16.6632 7.96869 7.9994 18.3311 7.13169L48.0933 4.63953C84.9666 1.55191 122.033 1.55192 158.907 4.63953L188.669 7.13169C199.031 7.9994 207 16.6632 207 27.0619V128.938C207 139.337 199.031 148.001 188.669 148.868L158.907 151.36C122.033 154.448 84.9666 154.448 48.0932 151.36L18.3311 148.868C7.96867 148.001 0 139.337 0 128.938V27.062Z" fill="#FF0000"/>
<path d="M67.3433 127.768H92.3516L113.547 29H90.2332L80.4829 42.1397L88.5385 42.987L67.3433 127.768Z" fill="white"/>
<path d="M8 67.148C8 67.148 20.3503 61.6112 37.6745 59.9456C46.6587 59.075 59.3805 60.4795 67.3432 61.6403C90.6568 65.0296 135.827 99.3645 163.354 76.8983C163.244 77.6992 155.299 80.2877 145.549 78.593C135.258 76.8054 121.034 73.416 103.373 65.877C95.0908 62.3425 41.4585 44.2465 8 67.148Z" fill="white"/>
<path d="M17.3265 59.5219C17.3265 59.5219 27.9648 55.082 45.3005 53.5847C51.8471 53.0043 59.3166 52.9172 75.8224 54.8557C104.644 58.2509 163.54 95.1278 169.5 62.0813C169.5 62.0813 158.473 73.5263 116.936 57.4383C109.095 54.3566 53.7798 37.4793 17.3265 59.5219Z" fill="white"/>
<path d="M118.213 33.2367L116.089 42.987C116.089 42.987 150 43.8692 158.903 47.63C160.029 48.1059 162.054 48.7501 162.292 49.3247C162.292 49.3479 154.254 33.643 118.213 33.2367Z" fill="white"/>
<path d="M126.263 29.8474C126.425 29.9344 157.603 31.9657 169.924 52.7373C169.779 50.4738 168.375 26.4464 126.263 29.8474Z" fill="white"/>
</svg>
